<svg width="18" height="18" viewBox="0 0 18 18" fill="none" xmlns="http://www.w3.org/2000/svg">
<g clip-path="url(#clip0_1_252)">
<path fill-rule="evenodd" clip-rule="evenodd" d="M14.7353 2.85852C15.0174 2.93413 15.1849 3.22417 15.1093 3.50634L14.8511 4.46975C14.7755 4.75193 14.4855 4.91938 14.2033 4.84377C13.9211 4.76816 13.7537 4.47812 13.8293 4.19595L14.0874 3.23254C14.163 2.95036 14.4531 2.78291 14.7353 2.85852ZM11.8112 4.05476C11.3367 3.23289 10.2023 3.10467 9.55633 3.7999L5.00842 8.6945C5.16709 8.83841 5.30642 9.00905 5.41927 9.20452L7.18243 12.2584C7.29529 12.4539 7.37341 12.6599 7.41871 12.8693L13.9315 11.378C14.8566 11.1661 15.3128 10.1196 14.8382 9.29776L11.8112 4.05476ZM6.15469 12.7234L4.39153 9.66953C4.0994 9.16355 3.4524 8.99019 2.94642 9.28232C2.44044 9.57445 2.26708 10.2214 2.5592 10.7274L4.32236 13.7813C4.61449 14.2873 5.26149 14.4607 5.76747 14.1685C6.27346 13.8764 6.44682 13.2294 6.15469 12.7234ZM10.2884 15.8404L8.94596 13.5153L11.1038 13.0212L12.1207 14.7825C12.4128 15.2885 12.2394 15.9355 11.7335 16.2276C11.2275 16.5197 10.5805 16.3464 10.2884 15.8404ZM15.8876 6.26506C15.6055 6.18945 15.3154 6.3569 15.2398 6.63908C15.1642 6.92126 15.3316 7.2113 15.6138 7.28691L16.5772 7.54505C16.8594 7.62066 17.1494 7.4532 17.2251 7.17103C17.3007 6.88885 17.1332 6.59881 16.851 6.5232L15.8876 6.26506Z" fill="white" fill-opacity="0.6"/>
</g>
<defs>
<clipPath id="clip0_1_252">
<rect width="16.9263" height="16.9263" fill="white" transform="translate(0.619659 0.926331)"/>
</clipPath>
</defs>
</svg>
